<?xml version="1.0" encoding="UTF-8" standalone="no"?>
<!-- Created with Inkscape (http://www.inkscape.org/) -->

<svg
   xmlns:dc="http://purl.org/dc/elements/1.1/"
   xmlns:cc="http://creativecommons.org/ns#"
   xmlns:rdf="http://www.w3.org/1999/02/22-rdf-syntax-ns#"
   xmlns:svg="http://www.w3.org/2000/svg"
   xmlns="http://www.w3.org/2000/svg"
   xmlns:sodipodi="http://sodipodi.sourceforge.net/DTD/sodipodi-0.dtd"
   xmlns:inkscape="http://www.inkscape.org/namespaces/inkscape"
   width="500"
   height="120"
   id="svg2"
   version="1.1"
   inkscape:version="0.92.2 (5c3e80d, 2017-08-06)"
   sodipodi:docname="logo.svg">
  <defs
     id="defs4">
    <inkscape:perspective
       sodipodi:type="inkscape:persp3d"
       inkscape:vp_x="706.89662 : -19.033753 : 1"
       inkscape:vp_y="0 : 1000 : 0"
       inkscape:vp_z="1450.9911 : -19.033753 : 1"
       inkscape:persp3d-origin="1078.9439 : -194.42745 : 1"
       id="perspective3878" />
    <clipPath
       clipPathUnits="userSpaceOnUse"
       id="clipPath3120">
      <path
         inkscape:connector-curvature="0"
         id="path3122"
         style="font-style:normal;font-variant:normal;font-weight:normal;font-stretch:normal;font-size:218.14128113px;line-height:125%;font-family:'Fredoka One';-inkscape-font-specification:'Fredoka One';letter-spacing:0px;word-spacing:0px;fill:#000000;fill-opacity:1;stroke:none"
         d="m 920.32252,353.5064 c 14.54267,1.2e-4 26.61314,5.59907 36.21141,16.79688 9.7436,11.05258 14.6154,24.57732 14.6155,40.57428 v 38.39286 c -1e-4,3.34485 -0.1455,5.88983 -0.4363,7.63495 -0.1455,1.59971 -0.7272,3.41755 -1.7451,5.45353 -2.0361,3.92655 -7.7078,5.88982 -17.015,5.88982 -10.32547,0 -16.28799,-2.69041 -17.88761,-8.07123 -0.87265,-2.47226 -1.30893,-6.18066 -1.30884,-11.12521 v -38.39286 c -9e-5,-5.96247 -1.74522,-10.61614 -5.23539,-13.96104 -3.34491,-3.34476 -7.92588,-5.01718 -13.7429,-5.01725 -5.67174,7e-5 -10.32541,1.7452 -13.96105,5.23539 -3.49031,3.49033 -5.23543,8.07129 -5.23539,13.7429 v 38.611 c -4e-5,3.34485 -0.14547,5.88983 -0.43628,7.63495 -0.14547,1.59971 -0.7999,3.41755 -1.96327,5.45353 -1.8906,3.92655 -7.48956,5.88982 -16.79688,5.88982 -9.16195,0 -14.76091,-1.96327 -16.79688,-5.88982 -1.018,-2.1814 -1.67242,-4.07196 -1.96327,-5.67167 -0.14544,-1.74512 -0.21815,-4.2901 -0.21814,-7.63495 v -77.22201 c -1e-5,-3.19931 0.0727,-5.59886 0.21814,-7.19866 0.29085,-1.74503 1.01798,-3.63559 2.18141,-5.67168 2.03597,-3.63557 7.63493,-5.45341 16.79688,-5.45353 22.69383,15.38572 23.03957,0.23325 44.71896,0"
         sodipodi:nodetypes="ccscccsccccccscccsccsscccc" />
    </clipPath>
    <clipPath
       clipPathUnits="userSpaceOnUse"
       id="clipPath3120-3">
      <path
         inkscape:connector-curvature="0"
         id="path3122-6"
         style="font-style:normal;font-variant:normal;font-weight:normal;font-stretch:normal;font-size:218.14128113px;line-height:125%;font-family:'Fredoka One';-inkscape-font-specification:'Fredoka One';letter-spacing:0px;word-spacing:0px;fill:#000000;fill-opacity:1;stroke:none"
         d="m 920.32252,353.5064 c 14.54267,1.2e-4 26.61314,5.59907 36.21141,16.79688 9.7436,11.05258 14.6154,24.57732 14.6155,40.57428 v 38.39286 c -1e-4,3.34485 -0.1455,5.88983 -0.4363,7.63495 -0.1455,1.59971 -0.7272,3.41755 -1.7451,5.45353 -2.0361,3.92655 -7.7078,5.88982 -17.015,5.88982 -10.32547,0 -16.28799,-2.69041 -17.88761,-8.07123 -0.87265,-2.47226 -1.30893,-6.18066 -1.30884,-11.12521 v -38.39286 c -9e-5,-5.96247 -1.74522,-10.61614 -5.23539,-13.96104 -3.34491,-3.34476 -7.92588,-5.01718 -13.7429,-5.01725 -5.67174,7e-5 -10.32541,1.7452 -13.96105,5.23539 -3.49031,3.49033 -5.23543,8.07129 -5.23539,13.7429 v 38.611 c -4e-5,3.34485 -0.14547,5.88983 -0.43628,7.63495 -0.14547,1.59971 -0.7999,3.41755 -1.96327,5.45353 -1.8906,3.92655 -7.48956,5.88982 -16.79688,5.88982 -9.16195,0 -14.76091,-1.96327 -16.79688,-5.88982 -1.018,-2.1814 -1.67242,-4.07196 -1.96327,-5.67167 -0.14544,-1.74512 -0.21815,-4.2901 -0.21814,-7.63495 v -77.22201 c -1e-5,-3.19931 0.0727,-5.59886 0.21814,-7.19866 0.29085,-1.74503 1.01798,-3.63559 2.18141,-5.67168 2.03597,-3.63557 7.63493,-5.45341 16.79688,-5.45353 22.69383,15.38572 23.03957,0.23325 44.71896,0"
         sodipodi:nodetypes="ccscccsccccccscccsccsscccc" />
    </clipPath>
    <clipPath
       clipPathUnits="userSpaceOnUse"
       id="clipPath3150">
      <path
         inkscape:connector-curvature="0"
         id="path3152"
         style="font-style:normal;font-variant:normal;font-weight:normal;font-stretch:normal;font-size:218.14128113px;line-height:125%;font-family:'Fredoka One';-inkscape-font-specification:'Fredoka One';letter-spacing:0px;word-spacing:0px;fill:#000000;fill-opacity:1;stroke:none"
         d="m 948.32884,222.56103 c 14.5427,1.2e-4 26.61325,5.59907 36.21155,16.79688 9.7435,11.05258 14.6153,24.57732 14.6155,40.57428 v 38.39286 c -2e-4,3.34485 -0.1456,5.88983 -0.4363,7.63495 -0.1456,1.59971 -0.7273,3.41755 -1.7452,5.45353 -2.0361,3.92655 -7.7077,5.88982 -17.015,5.88982 -10.32545,0 -16.28795,-2.69041 -17.88765,-8.07123 -0.8726,-2.47226 -1.3089,-6.18066 -1.3088,-11.12521 v -38.39286 c -10e-5,-5.96247 -1.7452,-10.61614 -5.2354,-13.96104 -3.3449,-3.34476 -7.9259,-5.01718 -13.7429,-5.01725 -5.6717,7e-5 -10.3254,1.7452 -13.961,5.23539 -3.4904,3.49033 -5.2355,8.07129 -5.2354,13.7429 v 38.611 c -1e-4,3.34485 -0.1455,5.88983 -0.4363,7.63495 -0.1455,1.59971 -0.7999,3.41755 -1.9633,5.45353 -1.8906,3.92655 -7.4895,5.88982 -16.7969,5.88982 -9.1619,0 -14.7609,-1.96327 -16.7968,-5.88982 -1.018,-2.1814 -1.6725,-4.07196 -1.9633,-5.67167 -0.1455,-1.74512 -0.2182,-4.2901 -0.2182,-7.63495 V 240.8849 c 0,-3.19931 0.073,-5.59886 0.2182,-7.19866 0.2908,-1.74503 1.018,-3.63559 2.1814,-5.67168 2.036,-3.63557 7.6349,-5.45341 16.7969,-5.45353 22.6938,15.38572 23.0395,0.23325 44.7189,0"
         sodipodi:nodetypes="ccscccsccccccscccsccsscccc" />
    </clipPath>
    <clipPath
       clipPathUnits="userSpaceOnUse"
       id="clipPath3150-6">
      <path
         inkscape:connector-curvature="0"
         id="path3152-2"
         style="font-style:normal;font-variant:normal;font-weight:normal;font-stretch:normal;font-size:218.14128113px;line-height:125%;font-family:'Fredoka One';-inkscape-font-specification:'Fredoka One';letter-spacing:0px;word-spacing:0px;fill:#000000;fill-opacity:1;stroke:none"
         d="m 948.32884,222.56103 c 14.5427,1.2e-4 26.61325,5.59907 36.21155,16.79688 9.7435,11.05258 14.6153,24.57732 14.6155,40.57428 v 38.39286 c -2e-4,3.34485 -0.1456,5.88983 -0.4363,7.63495 -0.1456,1.59971 -0.7273,3.41755 -1.7452,5.45353 -2.0361,3.92655 -7.7077,5.88982 -17.015,5.88982 -10.32545,0 -16.28795,-2.69041 -17.88765,-8.07123 -0.8726,-2.47226 -1.3089,-6.18066 -1.3088,-11.12521 v -38.39286 c -10e-5,-5.96247 -1.7452,-10.61614 -5.2354,-13.96104 -3.3449,-3.34476 -7.9259,-5.01718 -13.7429,-5.01725 -5.6717,7e-5 -10.3254,1.7452 -13.961,5.23539 -3.4904,3.49033 -5.2355,8.07129 -5.2354,13.7429 v 38.611 c -1e-4,3.34485 -0.1455,5.88983 -0.4363,7.63495 -0.1455,1.59971 -0.7999,3.41755 -1.9633,5.45353 -1.8906,3.92655 -7.4895,5.88982 -16.7969,5.88982 -9.1619,0 -14.7609,-1.96327 -16.7968,-5.88982 -1.018,-2.1814 -1.6725,-4.07196 -1.9633,-5.67167 -0.1455,-1.74512 -0.2182,-4.2901 -0.2182,-7.63495 V 240.8849 c 0,-3.19931 0.073,-5.59886 0.2182,-7.19866 0.2908,-1.74503 1.018,-3.63559 2.1814,-5.67168 2.036,-3.63557 7.6349,-5.45341 16.7969,-5.45353 22.6938,15.38572 23.0395,0.23325 44.7189,0"
         sodipodi:nodetypes="ccscccsccccccscccsccsscccc" />
    </clipPath>
    <clipPath
       clipPathUnits="userSpaceOnUse"
       id="clipPath3847-6">
      <rect
         style="fill:#ffffff;fill-opacity:1;stroke:none"
         id="rect3849-3"
         width="135.68434"
         height="31.608282"
         x="41.630424"
         y="1728.4711" />
    </clipPath>
    <clipPath
       clipPathUnits="userSpaceOnUse"
       id="clipPath3959">
      <path
         style="fill:#003656;fill-opacity:0.58333333;stroke:#000000;stroke-width:1px;stroke-linecap:butt;stroke-linejoin:miter;stroke-opacity:1"
         d="m 1007.4689,1192.5378 -12.08411,17.9535 1.38104,18.9893 49.02697,-2.7621 c 0,0 22.0966,-57.3132 20.025,-58.0037 -2.0715,-0.6905 -11.0483,-6.5599 -16.2272,-6.2147 -5.1789,0.3453 -34.8713,12.7747 -34.8713,12.7747 z"
         id="path3961"
         inkscape:connector-curvature="0" />
    </clipPath>
    <clipPath
       clipPathUnits="userSpaceOnUse"
       id="clipPath3959-9">
      <path
         style="fill:#003656;fill-opacity:0.58333333;stroke:#000000;stroke-width:1px;stroke-linecap:butt;stroke-linejoin:miter;stroke-opacity:1"
         d="m 994.5939,1196.9128 -2.95911,9.391 c -3.65856,6.1019 -4.73637,13.7883 -2.43146,23.5518 l 56.58947,-3.1371 c 0,0 22.0966,-57.3132 20.025,-58.0037 -2.0715,-0.6905 -11.0483,-6.5599 -16.2272,-6.2147 -5.1789,0.3453 -34.8713,12.7747 -34.8713,12.7747 z"
         id="path3961-8"
         inkscape:connector-curvature="0"
         sodipodi:nodetypes="cccccccc" />
    </clipPath>
    <clipPath
       clipPathUnits="userSpaceOnUse"
       id="clipPath3959-8">
      <path
         style="fill:#003656;fill-opacity:0.58333333;stroke:#000000;stroke-width:1px;stroke-linecap:butt;stroke-linejoin:miter;stroke-opacity:1"
         d="m 1007.4689,1192.5378 -12.08411,17.9535 1.38104,18.9893 49.02697,-2.7621 c 0,0 22.0966,-57.3132 20.025,-58.0037 -2.0715,-0.6905 -11.0483,-6.5599 -16.2272,-6.2147 -5.1789,0.3453 -34.8713,12.7747 -34.8713,12.7747 z"
         id="path3961-1"
         inkscape:connector-curvature="0"
         sodipodi:nodetypes="cccccccc" />
    </clipPath>
    <clipPath
       clipPathUnits="userSpaceOnUse"
       id="clipPath877">
      <rect
         y="1728.4711"
         x="48.190365"
         height="31.608282"
         width="35.168949"
         id="rect879"
         style="fill:#ffffff;fill-opacity:1;stroke:none;stroke-width:0.50911373" />
    </clipPath>
    <clipPath
       clipPathUnits="userSpaceOnUse"
       id="clipPath877-9">
      <rect
         y="1728.4711"
         x="48.190365"
         height="31.608282"
         width="35.168949"
         id="rect879-1"
         style="fill:#ffffff;fill-opacity:1;stroke:none;stroke-width:0.50911373" />
    </clipPath>
    <clipPath
       clipPathUnits="userSpaceOnUse"
       id="clipPath3959-9-3">
      <path
         style="fill:#003656;fill-opacity:0.58333333;stroke:#000000;stroke-width:1px;stroke-linecap:butt;stroke-linejoin:miter;stroke-opacity:1"
         d="m 994.5939,1196.9128 -2.95911,9.391 c -3.65856,6.1019 -4.73637,13.7883 -2.43146,23.5518 l 56.58947,-3.1371 c 0,0 22.0966,-57.3132 20.025,-58.0037 -2.0715,-0.6905 -11.0483,-6.5599 -16.2272,-6.2147 -5.1789,0.3453 -34.8713,12.7747 -34.8713,12.7747 z"
         id="path3961-8-2"
         inkscape:connector-curvature="0"
         sodipodi:nodetypes="cccccccc" />
    </clipPath>
    <clipPath
       clipPathUnits="userSpaceOnUse"
       id="clipPath3959-9-0">
      <path
         style="fill:#003656;fill-opacity:0.58333333;stroke:#000000;stroke-width:1px;stroke-linecap:butt;stroke-linejoin:miter;stroke-opacity:1"
         d="m 994.5939,1196.9128 -2.95911,9.391 c -3.65856,6.1019 -4.73637,13.7883 -2.43146,23.5518 l 56.58947,-3.1371 c 0,0 22.0966,-57.3132 20.025,-58.0037 -2.0715,-0.6905 -11.0483,-6.5599 -16.2272,-6.2147 -5.1789,0.3453 -34.8713,12.7747 -34.8713,12.7747 z"
         id="path3961-8-7"
         inkscape:connector-curvature="0"
         sodipodi:nodetypes="cccccccc" />
    </clipPath>
  </defs>
  <sodipodi:namedview
     id="base"
     pagecolor="#ffffff"
     bordercolor="#666666"
     borderopacity="1.0"
     inkscape:pageopacity="0.0"
     inkscape:pageshadow="2"
     inkscape:zoom="1"
     inkscape:cx="170.17661"
     inkscape:cy="51.659791"
     inkscape:document-units="px"
     inkscape:current-layer="layer1"
     showgrid="false"
     inkscape:window-width="1366"
     inkscape:window-height="717"
     inkscape:window-x="0"
     inkscape:window-y="25"
     inkscape:window-maximized="1"
     units="px" />
  <metadata
     id="metadata7">
    <rdf:RDF>
      <cc:Work
         rdf:about="">
        <dc:format>image/svg+xml</dc:format>
        <dc:type
           rdf:resource="http://purl.org/dc/dcmitype/StillImage" />
        <dc:title />
      </cc:Work>
    </rdf:RDF>
  </metadata>
  <g
     inkscape:label="Capa 1"
     inkscape:groupmode="layer"
     id="layer1"
     transform="translate(0,-1002.5196)">
    <g
       id="g995"
       inkscape:export-xdpi="96"
       inkscape:export-ydpi="96"
       inkscape:export-filename="C:\Users\x\Documents\l6.png" />
    <g
       id="g1545"
       transform="matrix(0.96242601,0,0,0.95035044,-144.73716,-1064.1097)"
       inkscape:export-filename="C:\Users\x\Documents\l5.png"
       inkscape:export-xdpi="96"
       inkscape:export-ydpi="96">
      <path
         d="M 269.01659,2297.4862 H 234.0799 v -60.8197 q 0,-11.7166 -6.07131,-17.8944 -5.9648,-5.8583 -17.68138,-5.8583 -11.71657,0 -17.68137,5.8583 -6.07132,6.1778 -6.07132,17.8944 v 60.8197 h -34.93669 v -60.8197 q 0,-26.2025 16.40321,-42.4992 16.08366,-16.1902 42.28617,-16.1902 26.20252,0 42.28618,16.1902 16.4032,16.2967 16.4032,42.4992 z"
         style="font-style:normal;font-variant:normal;font-weight:bold;font-stretch:normal;font-size:medium;line-height:125%;font-family:'Magettas DEMO';-inkscape-font-specification:'Magettas DEMO Bold';letter-spacing:0px;word-spacing:0px;fill:#1496ed;fill-opacity:1;stroke:#000000;stroke-width:2.5;stroke-miterlimit:4;stroke-dasharray:none;stroke-opacity:1"
         id="path1024-1-7"
         inkscape:connector-curvature="0" />
      <path
         d="m 536.15447,2297.4862 h -34.93669 v -60.8197 q 0,-11.7166 -6.07132,-17.8944 -5.9648,-5.8583 -17.68137,-5.8583 -11.71657,0 -17.68137,5.8583 -6.07132,6.1778 -6.07132,17.8944 v 60.8197 h -34.93669 v -60.8197 q 0,-26.2025 16.4032,-42.4992 16.08366,-16.1902 42.28618,-16.1902 26.20252,0 42.28618,16.1902 16.4032,16.2967 16.4032,42.4992 z"
         style="font-style:normal;font-variant:normal;font-weight:bold;font-stretch:normal;font-size:medium;line-height:125%;font-family:'Magettas DEMO';-inkscape-font-specification:'Magettas DEMO Bold';letter-spacing:0px;word-spacing:0px;fill:#1496ed;fill-opacity:1;stroke:#000000;stroke-width:2.5;stroke-miterlimit:4;stroke-dasharray:none;stroke-opacity:1"
         id="path1028-6-5"
         inkscape:connector-curvature="0" />
      <path
         d="m 609.96887,2210.677 q -12.78172,0 -19.3856,6.3909 -6.60389,6.8169 -6.60389,21.7289 0,15.0185 6.60389,21.7289 6.60388,6.3908 19.3856,6.3908 12.78171,0 19.3856,-6.3908 6.60389,-6.7104 6.60389,-21.7289 0,-14.912 -6.60389,-21.7289 -6.60389,-6.3909 -19.3856,-6.3909 z m -42.28618,-16.5097 q 16.08366,-16.1902 42.28618,-16.1902 26.20252,0 42.28617,16.1902 16.40321,16.2967 16.40321,44.6295 0,28.3328 -16.40321,44.736 -16.08365,16.0836 -42.28617,16.0836 -26.20252,0 -42.28618,-16.0836 -16.4032,-16.4032 -16.4032,-44.736 0,-28.3328 16.4032,-44.6295 z"
         style="font-style:normal;font-variant:normal;font-weight:bold;font-stretch:normal;font-size:medium;line-height:125%;font-family:'Magettas DEMO';-inkscape-font-specification:'Magettas DEMO Bold';letter-spacing:0px;word-spacing:0px;fill:#1496ed;fill-opacity:1;stroke:#000000;stroke-width:2.5;stroke-miterlimit:4;stroke-dasharray:none;stroke-opacity:1"
         id="path1030-9-2"
         inkscape:connector-curvature="0" />
      <g
         transform="translate(35.671449,196.19659)"
         id="g1164-6-5">
        <path
           inkscape:connector-curvature="0"
           id="path1150-1-9"
           style="font-style:normal;font-variant:normal;font-weight:bold;font-stretch:normal;font-size:medium;line-height:125%;font-family:'Magettas DEMO';-inkscape-font-specification:'Magettas DEMO Bold';letter-spacing:0px;word-spacing:0px;fill:#1496ed;fill-opacity:1;stroke:#000000;stroke-width:2.5;stroke-miterlimit:4;stroke-dasharray:none;stroke-opacity:1"
           d="M 365.38829,2099.1594 H 330.4516 v -60.074 c -0.071,-9.7993 -2.09479,-16.7228 -6.07132,-20.7703 -3.97653,-3.9055 -9.87032,-5.8583 -17.68137,-5.8583 -7.81105,0 -13.70484,1.9528 -17.68137,5.8583 -4.04755,4.1185 -6.07132,11.1485 -6.07132,21.0898 -0.56229,26.168 20.3651,33.9975 37.28001,29.3668 v 31.6659 c -4.40259,0.5681 -8.9117,0.8521 -13.52732,0.8521 -17.46835,0 -31.56374,-5.3612 -42.28618,-16.0836 -10.93547,-11.6456 -16.4032,-26.9127 -16.4032,-45.8012 0,-19.5986 5.46773,-34.8301 16.4032,-45.6946 10.72244,-9.3733 24.81783,-14.0599 42.28618,-14.0599 17.46835,0 31.56374,4.6866 42.28618,14.0599 10.79345,10.7934 16.26118,26.0249 16.4032,45.6946 z"
           sodipodi:nodetypes="ccccsccccscscsccc" />
        <path
           sodipodi:nodetypes="ccccc"
           inkscape:connector-curvature="0"
           id="rect905-9-9-1-8-8-4-7"
           d="m 295.1173,2099.1101 c 4.9319,-12.4033 3.44866,-22.3077 0.39016,-31.7117 5.52024,2.8326 11.76327,5.0907 23.54125,2.9492 l -0.0863,29.0914 c -8.04994,0.6852 -16.46647,1.1382 -23.84511,-0.3289 z"
           style="opacity:1;fill:#ffffff;fill-opacity:1;stroke:none;stroke-width:20.40883636;stroke-miterlimit:4;stroke-dasharray:none;stroke-dashoffset:0;stroke-opacity:1" />
        <path
           sodipodi:nodetypes="ccccc"
           inkscape:connector-curvature="0"
           id="rect905-9-9-1-8-8-4-2"
           d="m 331.67228,2073.5251 c 12.40336,4.9319 22.96745,3.0585 32.37147,0 v 24.4136 h -32.37147 z"
           style="opacity:1;fill:#ffffff;fill-opacity:1;stroke:none;stroke-width:20.40883636;stroke-miterlimit:4;stroke-dasharray:none;stroke-dashoffset:0;stroke-opacity:1" />
      </g>
      <path
         style="fill:none;stroke:#000000;stroke-width:1.5;stroke-linecap:butt;stroke-linejoin:miter;stroke-miterlimit:4;stroke-dasharray:none;stroke-opacity:1"
         d="m 596.38515,2263.7869 -0.10044,34.3521"
         id="path1269-1-5"
         inkscape:connector-curvature="0" />
      <path
         sodipodi:nodetypes="ccccc"
         inkscape:connector-curvature="0"
         id="rect905-9-9-1-8-8-4"
         d="m 152.86782,2271.8426 c 12.40336,4.9319 22.96745,3.0585 32.37147,0 v 24.4136 h -32.37147 z"
         style="opacity:1;fill:#ffffff;fill-opacity:1;stroke:none;stroke-width:20.40883636;stroke-miterlimit:4;stroke-dasharray:none;stroke-dashoffset:0;stroke-opacity:1" />
      <path
         sodipodi:nodetypes="ccccc"
         inkscape:connector-curvature="0"
         id="rect905-9-9-1-8-8-4-4"
         d="m 235.33147,2271.821 c 12.40336,4.9319 22.96745,3.0585 32.37147,0 v 24.4136 h -32.37147 z"
         style="opacity:1;fill:#ffffff;fill-opacity:1;stroke:none;stroke-width:20.40883636;stroke-miterlimit:4;stroke-dasharray:none;stroke-dashoffset:0;stroke-opacity:1" />
      <path
         sodipodi:nodetypes="ccccc"
         inkscape:connector-curvature="0"
         id="rect905-9-9-1-8-8-4-6"
         d="m 420.0462,2271.7779 c 12.40336,4.9319 22.96745,3.0585 32.37147,0 v 24.4136 H 420.0462 Z"
         style="opacity:1;fill:#ffffff;fill-opacity:1;stroke:none;stroke-width:20.40883636;stroke-miterlimit:4;stroke-dasharray:none;stroke-dashoffset:0;stroke-opacity:1" />
      <path
         sodipodi:nodetypes="ccccc"
         inkscape:connector-curvature="0"
         id="rect905-9-9-1-8-8-4-4-3"
         d="m 502.50985,2271.7563 c 12.40336,4.9319 22.96745,3.0585 32.37147,0 v 24.4136 h -32.37147 z"
         style="opacity:1;fill:#ffffff;fill-opacity:1;stroke:none;stroke-width:20.40883636;stroke-miterlimit:4;stroke-dasharray:none;stroke-dashoffset:0;stroke-opacity:1" />
      <path
         sodipodi:nodetypes="cccccc"
         inkscape:connector-curvature="0"
         id="rect905-9-9-1-8-8-4-4-31"
         d="m 620.98175,2266.7067 c -4.31525,14.2556 -0.87767,24.4525 5.80804,29.7745 -8.1042,1.8645 -18.46467,2.7141 -29.78216,0.7839 l 0.0863,-31.2493 c 8.62634,3.034 17.57791,2.3331 23.88782,0.6909 z"
         style="opacity:1;fill:#ffffff;fill-opacity:1;stroke:none;stroke-width:20.40883636;stroke-miterlimit:4;stroke-dasharray:none;stroke-dashoffset:0;stroke-opacity:1" />
    </g>
  </g>
</svg>
